<svg width="140" height="142" viewBox="0 0 140 142" fill="none" xmlns="http://www.w3.org/2000/svg">
<path fill-rule="evenodd" clip-rule="evenodd" d="M134.339 88.0583C135.281 99.3501 136.263 110.799 137.283 122.483C135.752 127.07 134.221 131.696 132.69 136.362C125.506 139.303 117.851 140.989 111.256 141.851C94.1394 141.381 78.3972 140.283 62.6942 139.46C46.9912 138.636 31.3275 138.048 14.2505 138.597C9.46109 137.46 5.10351 132.99 4.16133 130.246C3.21915 127.619 2.19846 123.463 1.33479 119.542C1.76663 109.152 1.92365 98.1739 0.274841 88.0975H67.2873C89.6248 88.0975 111.962 88.0975 134.339 88.0975V88.0583Z" fill="url(#paint0_linear_9_16077)"/>
<path fill-rule="evenodd" clip-rule="evenodd" d="M67.6014 0.350586C73.4508 5.60442 81.3808 13.2107 87.5442 17.2491C91.1559 19.6016 92.0981 19.5624 95.435 18.6606C101.127 13.9949 106.82 8.85866 112.433 3.21275C105.485 2.66384 96.2986 1.80127 91.3915 1.09553C84.2859 0.664248 74.707 0.389794 67.5622 0.389794L67.6014 0.350586Z" fill="url(#paint1_radial_9_16077)"/>
<path fill-rule="evenodd" clip-rule="evenodd" d="M91.352 27.0511C88.1722 33.3635 84.1287 42.1853 79.6141 52.4969C77.3371 57.7507 74.9032 63.3966 72.4299 69.317C69.9175 75.3158 67.3657 81.589 64.7747 88.0975C62.223 94.4492 59.632 100.958 57.1195 107.505C54.5678 114.131 52.0553 120.836 49.6606 127.462C60.4172 127.384 71.0952 127.423 81.891 127.54C92.6868 127.658 103.64 127.893 114.985 128.207C121.855 127.305 129.785 125.58 137.283 122.561C137.558 111.701 137.558 100.997 137.401 90.4108C137.244 80.0207 137.008 69.7875 136.694 59.7503C136.223 43.4791 136.694 25.7964 135.634 9.83888C132.337 7.72166 121.305 3.21277 114.161 3.21277C109.371 8.03532 104.386 12.7795 99.2821 17.5628C95.0422 21.5228 93.943 21.9149 91.3913 27.0511H91.352Z" fill="url(#paint2_radial_9_16077)"/>
<path fill-rule="evenodd" clip-rule="evenodd" d="M62.0268 88.0583C66.5414 76.492 71.213 65.2786 76.081 54.418C80.8704 43.7535 85.8561 33.4027 90.9988 23.4047C91.1166 21.1699 90.4885 20.9346 87.3479 18.8958C80.1637 14.1909 71.6056 6.11412 65.3244 0.350586C54.3716 0.350586 44.9891 1.05633 34.0755 1.29157C25.2818 2.4678 14.0149 3.72245 6.8308 5.01631C5.84936 5.17314 2.27693 7.56481 2.19842 8.30976C1.96287 10.623 0.745892 20.0721 0.628119 23.7576C0.353317 30.619 0.196287 37.5587 0.117772 44.4985C0 51.6343 0 58.7701 0 65.9843C0 73.277 0.15703 80.6872 0.31406 88.1367C0.549605 98.4875 0.902922 108.956 1.37401 119.581C2.31619 122.404 6.87006 127.031 11.8558 128.207C24.1433 127.815 35.9991 127.58 47.6978 127.462C50.014 120.64 52.3695 113.935 54.7642 107.348C57.1589 100.84 59.5928 94.4099 62.0661 88.0975L62.0268 88.0583Z" fill="url(#paint3_radial_9_16077)"/>
<path fill-rule="evenodd" clip-rule="evenodd" d="M49.6214 127.423C53.3116 117.268 57.2374 106.996 61.1631 96.9977C65.0496 87.1565 68.9753 77.5898 72.6655 68.6897C76.3165 59.9463 79.8104 51.8303 82.9902 44.7729C86.1308 37.7548 88.9574 31.7168 91.3128 27.0511C93.9038 21.9148 95.003 21.5228 99.2036 17.5628C104.307 12.7794 109.253 8.0353 114.082 3.21275H112.433C106.78 8.85866 101.127 14.0341 95.4349 18.6606C92.0587 19.6016 91.1558 19.6016 87.5441 17.2491C81.3414 13.2107 73.4114 5.60442 67.6013 0.350586H65.3244C71.5663 6.11412 80.1637 14.1909 87.3478 18.8958C90.4884 20.9346 91.1165 21.1699 90.9595 23.4047C86.9945 31.0895 83.108 38.9702 79.3786 47.0078C75.6098 55.163 71.9196 63.5535 68.3472 72.1399C64.7355 80.8441 61.1631 89.7834 57.7477 98.9188C54.2538 108.172 50.8776 117.699 47.58 127.462C48.2474 127.462 48.9148 127.462 49.5821 127.462L49.6214 127.423Z" fill="url(#paint4_linear_9_16077)"/>
<path style="mix-blend-mode:screen" fill-rule="evenodd" clip-rule="evenodd" d="M39.6108 133.931C31.7593 133.892 18.1369 135.421 14.6038 135.735C13.1905 135.852 6.83078 132.324 5.06419 129.932C4.23978 128.834 3.57241 127.58 2.90503 126.364C3.2976 127.854 3.72944 129.226 4.12201 130.324C5.02493 133.069 9.38251 137.538 14.1719 138.636C22.73 138.362 30.8956 138.401 38.9434 138.597C46.9519 138.754 54.8034 139.107 62.6549 139.538C70.5064 139.969 78.3579 140.44 86.3664 140.871C94.4142 141.302 102.658 141.694 111.216 141.93C117.772 141.106 125.428 139.42 132.651 136.48C133.632 133.5 134.575 130.559 135.556 127.619C134.81 128.403 134.064 129.226 133.397 130.089C131.669 132.285 122.287 134.951 112.747 136.95C103.169 138.95 93.3935 140.361 91.0773 140.165C82.8725 139.381 73.8825 137.852 65.0103 136.519C56.1381 135.186 47.3837 134.01 39.5715 133.971L39.6108 133.931Z" fill="#160C0C"/>
<g style="mix-blend-mode:screen">
<path fill-rule="evenodd" clip-rule="evenodd" d="M139.552 90.3715C139.395 79.9815 139.159 69.7483 138.845 59.7111C138.374 43.4399 138.845 25.7572 137.785 9.79965C134.487 7.68243 123.456 3.17354 116.311 3.17354H114.662C107.714 2.62463 98.5276 1.76206 93.6204 1.05633C86.5148 0.62504 76.936 0.350586 69.7911 0.350586H67.5142C56.6006 0.350586 47.2181 1.05633 36.3045 1.29157C27.5108 2.4678 16.2439 3.72245 9.0598 5.01631C8.07837 5.17314 4.50593 7.56481 4.42742 8.30976C4.19188 10.623 2.9749 20.0721 2.85712 23.7576C2.58232 30.619 2.42529 37.5587 2.34677 44.4985C2.229 51.5951 2.229 58.7309 2.229 65.9451C2.229 73.2378 2.38603 80.6088 2.54306 88.0583H2.46455C2.5038 88.372 2.54306 88.6856 2.58232 88.9601C2.81787 98.6052 3.13193 108.368 3.56376 118.287C3.56376 118.68 3.56376 119.072 3.56376 119.503C4.07411 121.895 4.66297 124.286 5.25183 126.443C5.25183 126.403 5.21257 126.364 5.17331 126.325C5.56589 127.815 5.99772 129.187 6.39029 130.285C7.29322 133.03 11.6508 137.499 16.4402 138.597C24.9983 138.323 33.1639 138.362 41.2117 138.558C49.2202 138.715 57.0717 139.068 64.9232 139.499C72.7747 139.93 80.6262 140.401 88.6347 140.832C96.6825 141.263 104.927 141.655 113.485 141.891C120.041 141.067 127.696 139.381 134.919 136.441C136.45 131.775 137.981 127.148 139.512 122.561C139.512 122.483 139.512 122.365 139.512 122.287C139.787 111.544 139.787 100.918 139.63 90.45L139.552 90.3715ZM80.5084 55.4767C80.3121 55.9472 80.0766 56.4569 79.8803 56.9666C80.0766 56.4569 80.3121 55.9864 80.5084 55.4767ZM70.0659 80.3736C69.2022 82.53 68.2993 84.6864 67.4357 86.9213C68.3386 84.7256 69.2022 82.53 70.0659 80.3736ZM82.7461 50.3012C82.7461 50.3012 82.7853 50.1836 82.8246 50.1444C82.8246 50.2228 82.7853 50.262 82.7461 50.3012Z" fill="#F30000"/>
</g>
<defs>
<linearGradient id="paint0_linear_9_16077" x1="68.7399" y1="141.891" x2="68.7399" y2="88.0583" gradientUnits="userSpaceOnUse">
<stop stop-color="#57280C"/>
<stop offset="0.57" stop-color="#884329"/>
</linearGradient>
<radialGradient id="paint1_radial_9_16077" cx="0" cy="0" r="1" gradientUnits="userSpaceOnUse" gradientTransform="translate(74.707 -6.00106) scale(119.892 119.74)">
<stop stop-color="#CD9463"/>
<stop offset="1" stop-color="#734324"/>
</radialGradient>
<radialGradient id="paint2_radial_9_16077" cx="0" cy="0" r="1" gradientUnits="userSpaceOnUse" gradientTransform="translate(39.9248 20.6994) scale(163.154 162.947)">
<stop stop-color="#B6753E"/>
<stop offset="1" stop-color="#64381C"/>
</radialGradient>
<radialGradient id="paint3_radial_9_16077" cx="0" cy="0" r="1" gradientUnits="userSpaceOnUse" gradientTransform="translate(1.45252 0.664248) scale(131.434 131.267)">
<stop stop-color="#C28653"/>
<stop offset="1" stop-color="#734324"/>
</radialGradient>
<linearGradient id="paint4_linear_9_16077" x1="96.3378" y1="80.7656" x2="40.6628" y2="25.0201" gradientUnits="userSpaceOnUse">
<stop stop-color="#8F5630"/>
<stop offset="1" stop-color="#AE8361"/>
</linearGradient>
</defs>
</svg>
