<svg width="232" height="297" viewBox="0 0 232 297" fill="none" xmlns="http://www.w3.org/2000/svg">
<path opacity="0.45" fill-rule="evenodd" clip-rule="evenodd" d="M143.141 195.794C106.362 187.175 225.069 108.532 225.069 108.532L224.813 105.743C224.813 105.743 191.819 126.172 176.935 121.502C162.034 116.831 216.589 40.7077 216.589 40.7077L216.253 37.2468C216.253 37.2468 190.477 23.5544 214.081 0L179.65 0.0840046C179.091 1.41125 178.452 2.67129 177.797 3.83052C172.734 12.7852 164.318 18.8502 155.934 24.092C148.587 28.6785 133.575 37.986 124.76 33.3155C115.976 28.6785 121.534 16.0109 124.664 9.55951C126.133 6.53541 127.826 3.27611 129.838 0.201608L18.7491 0.470416L16.4653 37.986C16.4653 37.986 32.4675 33.2987 41.5706 51.9809C50.6896 70.6799 8.99127 160.109 8.99127 160.109L7.71364 164.259C7.71364 164.259 28.7624 165.754 30.6469 190.955C32.5314 216.156 2.36362 259.484 2.36362 259.484L2.12405 263.365C2.12405 263.365 76.8489 213.434 93.8732 219.885C110.898 226.337 0.127765 294.816 0.127765 294.816L0 297C0 297 78.6376 241.961 232 181.563V177.733C232 177.733 179.905 204.395 143.141 195.794ZM147.805 161.873C141.848 165.2 132.09 171.987 124.951 170.895C116.455 169.601 122.173 159.79 124.424 155.035C129.104 145.106 135.843 137.798 144.323 131.279C150.025 126.878 157.259 120.292 164.669 120.325C167.512 117.671 171.425 129.566 171.553 133.262C172.048 147.257 157.834 156.279 147.805 161.873ZM130.461 127.953C133.208 129.667 133.863 132.254 132.409 135.16C127.331 145.375 111.121 136.168 122.7 128.827L120.687 131.363C123.306 128.323 126.66 125.584 130.461 127.953ZM123.913 188.25H125.127C131.467 185.125 129.87 194.651 125.51 196.97C123.498 198.045 118.451 199.086 116.982 196.314C114.922 192.484 121.47 188.956 123.913 188.25ZM152.899 37.1964C164.685 28.3593 184.089 20.3119 198.351 26.9481C202.471 28.8633 212.277 34.3907 210.249 40.5397C210.951 43.631 207.629 48.268 205.122 51.9809C199.868 59.7595 195.572 68.1934 190.493 76.0897C182.029 89.2613 175.242 103.223 162.961 113.101C153.538 120.678 138.622 127.264 127.938 118.427C100.006 95.2927 132.889 52.1993 152.899 37.1964ZM125.926 39.2629C132.665 38.4732 132.09 49.0576 127.475 52.9721C123.45 56.3658 116.248 57.4915 114.187 51.3761C111.552 43.5134 120.304 39.3637 125.926 39.2629ZM58.9622 42.2366C64.6955 24.8984 84.0196 41.0773 74.8367 57.5419C71.4669 63.5733 58.6907 74.1744 52.4623 67.0174C47.5115 61.3388 51.9832 44.0174 58.9622 42.2366ZM23.8276 146.215C19.308 141.612 31.5572 120.578 33.7132 115.722C38.9195 103.911 46.3776 90.2525 55.5765 81.029C72.8244 63.7749 117.238 47.8983 117.158 86.4388C117.126 103.827 106.138 120.023 94.7995 132.472C85.4569 142.721 69.5505 156.211 55.3849 159.068C44.5091 161.268 13.0158 158.95 23.8436 146.232L23.8276 146.215ZM53.4205 170.072C58.1318 173.247 54.7461 181.043 52.0631 184.436C49.6356 187.528 39.6701 195.962 36.1088 190.703C33.6334 187.04 38.5522 178.086 41.363 175.297C40.6284 175.734 47.1123 165.788 53.4205 170.072ZM99.3191 187.595C96.5083 195.122 89.5932 200.632 83.8918 205.639C76.0504 212.51 67.0751 218.121 57.7006 222.389C54.9537 223.632 22.3424 238.45 24.6581 230.688C25.2011 223.8 31.4774 215.467 35.0388 210.007C42.2254 198.986 51.7117 189.376 62.6993 182.571C70.7323 177.582 86.6706 169.114 96.0611 175.045C100.437 177.817 101.028 183.059 99.3191 187.595ZM154.736 211.603C146.719 217.769 135.955 220.457 127.027 224.758C121.661 227.345 109.125 235.409 102.88 233.259C92.7713 229.764 114.874 205.437 120.288 202.665C124.153 198.011 134.661 200.481 141.161 200.548C147.645 200.615 167.895 201.455 154.736 211.603Z" fill="url(#paint0_radial_9_17183)"/>
<defs>
<radialGradient id="paint0_radial_9_17183" cx="0" cy="0" r="1" gradientUnits="userSpaceOnUse" gradientTransform="translate(115.892 149.319) scale(133.568 133.544)">
<stop stop-color="#848DB0"/>
<stop offset="0.97" stop-color="#8B77A9"/>
</radialGradient>
</defs>
</svg>
