<svg width="136" height="141" viewBox="0 0 136 141" fill="none" xmlns="http://www.w3.org/2000/svg">
<path d="M135.106 69.9642C134.863 68.7479 134.62 67.2883 134.376 65.8693C132.593 39.1915 132.025 16.6492 126.106 4.28333C118.402 2.78321 94.8057 0.756024 82.1966 0.350586C82.1966 0.350586 82.1966 0.350586 82.1561 0.350586C81.7101 0.350586 81.2641 0.39113 80.8587 0.431673C51.1806 2.37777 17.4077 5.4591 11.245 7.72955C6.29869 14.8247 3.2579 28.6096 1.63615 37.7319C1.55507 38.0968 1.51452 38.4617 1.43343 38.8266C1.43343 38.8672 1.43343 38.9077 1.43343 38.9483C0.703647 47.4219 -0.837016 82.8977 0.582016 96.6826C0.541472 97.6151 0.460384 98.4665 0.419841 99.2368C0.500928 99.845 0.541472 100.494 0.62256 101.183C1.59561 107.467 4.10932 114.927 6.33923 119.874C6.74467 120.968 7.15011 122.022 7.59609 123.036C9.62328 127.901 11.5288 131.388 13.11 133.942C13.9615 135.361 14.7318 136.497 15.2589 137.267C22.7595 137.186 56.0864 139.213 76.0745 140.794C101.252 139.821 121.93 137.51 129.633 133.375L132.714 123.158C135.795 101.872 135.025 80.5867 135.187 69.9642H135.106Z" fill="#924000"/>
<path fill-rule="evenodd" clip-rule="evenodd" d="M6.74475 92.5876L1.06862 103.088C1.67678 106.575 4.43375 114.846 6.25822 119.914C9.78553 129.28 13.2317 134.469 15.1778 137.307C22.6784 137.226 56.0054 139.253 75.9935 140.835C101.171 139.862 121.848 137.551 129.552 133.415L132.633 123.198L133.201 92.5876H6.74475Z" fill="url(#paint0_linear_9_16138)"/>
<path style="mix-blend-mode:screen" fill-rule="evenodd" clip-rule="evenodd" d="M121.2 132.564C118.929 132.442 117.064 134.51 114.794 134.875C112.605 135.24 78.9128 139.335 78.5479 139.294C66.9118 137.145 48.8698 135.28 43.3153 134.632C41.2881 134.388 24.7463 133.659 17.043 133.902C14.1644 125.671 11.8128 125.306 6.25832 119.874C9.33964 128.145 13.3535 134.753 15.1779 137.267C22.6785 137.186 56.0055 139.213 75.9936 140.794C101.171 139.821 121.849 137.51 129.552 133.375L130.93 128.834C127.444 131.834 122.416 132.604 121.24 132.523L121.2 132.564Z" fill="url(#paint1_radial_9_16138)"/>
<path fill-rule="evenodd" clip-rule="evenodd" d="M0.541518 101.223C1.51457 107.508 4.02828 114.968 6.25819 119.914L50.2076 128.509C76.034 128.509 111.51 126.482 132.633 123.239C135.714 101.953 134.944 80.6678 135.106 70.0453C125.538 63.9638 120.429 61.6122 110.05 56.828C75.4664 40.6916 39.423 40.4078 1.43348 38.8672C1.43348 38.9077 1.43348 38.9482 1.43348 38.9888C0.703693 47.4624 -0.83697 82.9382 0.582062 96.7231V101.223H0.541518Z" fill="url(#paint2_radial_9_16138)"/>
<path fill-rule="evenodd" clip-rule="evenodd" d="M74.088 41.7052C73.2366 28.1635 76.4801 13.4056 80.8183 0.43161C51.1808 2.37771 17.4078 5.45904 11.2451 7.72949C6.29881 14.8246 3.25803 28.6095 1.63628 37.7319C9.94775 38.0562 17.5294 38.2995 23.2056 38.5022C41.207 39.1104 50.3293 39.4347 74.1285 41.7052H74.088Z" fill="url(#paint3_radial_9_16138)"/>
<path fill-rule="evenodd" clip-rule="evenodd" d="M82.1968 0.350586C78.9939 10.1216 77.0478 21.2306 76.6829 31.8936C76.4396 39.7997 78.1019 42.6783 81.7509 43.4486C92.4139 45.6785 101.982 50.0978 111.267 54.3954C120.673 58.7742 127.484 62.4636 134.417 65.8693C132.633 39.1915 132.066 16.6492 126.146 4.28333C118.402 2.78321 94.806 0.756024 82.1968 0.350586Z" fill="url(#paint4_radial_9_16138)"/>
<path fill-rule="evenodd" clip-rule="evenodd" d="M1.43346 38.8672C39.423 40.4078 75.4664 40.6916 110.091 56.747C120.47 61.5717 125.578 63.8827 135.147 69.9642C134.904 68.7479 134.66 67.2883 134.417 65.8693C126.714 61.8555 120.673 58.7742 111.267 54.3954C101.982 50.0978 92.3731 45.6785 81.7507 43.4486C78.1017 42.6783 76.4394 39.7997 76.6827 31.8936C77.0476 21.2306 78.9937 10.1216 82.1966 0.350586C82.1966 0.350586 82.1966 0.350586 82.1561 0.350586C81.7101 0.350586 81.2641 0.39113 80.8587 0.431673C76.5205 13.4057 73.277 28.2042 74.1284 41.7052C50.3292 39.4348 41.2474 39.1104 23.2055 38.5023C17.5293 38.2995 9.94765 38.0968 1.63618 37.7319C1.55509 38.0968 1.51454 38.4617 1.43346 38.8266V38.8672ZM29.733 112.697C20.8539 107.305 11.4478 101.994 0.541493 96.7231C0.50095 97.6556 0.419862 98.507 0.379318 99.2774C0.460406 99.8855 0.50095 100.534 0.582037 101.223C15.3805 105.44 34.7604 118.576 50.2481 128.469C47.1668 123.685 34.801 115.738 29.7735 112.697H29.733Z" fill="url(#paint5_linear_9_16138)"/>
<g style="mix-blend-mode:screen">
<path d="M135.106 69.9642C134.863 68.7479 134.62 67.2883 134.376 65.8693C132.593 39.1915 132.025 16.6492 126.106 4.28333C118.402 2.78321 94.8057 0.756024 82.1966 0.350586C82.1966 0.350586 82.1966 0.350586 82.1561 0.350586C81.7101 0.350586 81.2641 0.39113 80.8587 0.431673C51.1806 2.37777 17.4077 5.4591 11.245 7.72955C6.29869 14.8247 3.2579 28.6096 1.63615 37.7319C1.55507 38.0968 1.51452 38.4617 1.43343 38.8266C1.43343 38.8672 1.43343 38.9077 1.43343 38.9483C0.703647 47.4219 -0.837016 82.8977 0.582016 96.6826C0.541472 97.6151 0.460384 98.4665 0.419841 99.2368C0.500928 99.845 0.541472 100.494 0.62256 101.183C1.59561 107.467 4.10932 114.927 6.33923 119.874C6.74467 120.968 7.15011 122.022 7.59609 123.036C9.62328 127.901 11.5288 131.388 13.11 133.942C13.9615 135.361 14.7318 136.497 15.2589 137.267C22.7595 137.186 56.0864 139.213 76.0745 140.794C101.252 139.821 121.929 137.51 129.633 133.375L132.714 123.158C135.795 101.872 135.025 80.5867 135.187 69.9642H135.106Z" fill="#FF0000"/>
</g>
<defs>
<linearGradient id="paint0_linear_9_16138" x1="67.1144" y1="140.835" x2="67.1144" y2="92.5876" gradientUnits="userSpaceOnUse">
<stop offset="0.43" stop-color="#884329"/>
<stop offset="1" stop-color="#57280C"/>
</linearGradient>
<radialGradient id="paint1_radial_9_16138" cx="0" cy="0" r="1" gradientUnits="userSpaceOnUse" gradientTransform="translate(40.5989 63.7205) scale(143.768 143.768)">
<stop stop-color="#160E0C"/>
<stop offset="0.15" stop-color="#19100C"/>
<stop offset="0.31" stop-color="#25160D"/>
<stop offset="0.46" stop-color="#39220F"/>
<stop offset="0.61" stop-color="#553112"/>
<stop offset="0.77" stop-color="#7A4516"/>
<stop offset="0.92" stop-color="#A55E1A"/>
<stop offset="1" stop-color="#C06D1D"/>
</radialGradient>
<radialGradient id="paint2_radial_9_16138" cx="0" cy="0" r="1" gradientUnits="userSpaceOnUse" gradientTransform="translate(12.7452 8.58096) scale(168.297)">
<stop stop-color="#CD9463"/>
<stop offset="1" stop-color="#734324"/>
</radialGradient>
<radialGradient id="paint3_radial_9_16138" cx="0" cy="0" r="1" gradientUnits="userSpaceOnUse" gradientTransform="translate(66.9117 78.6) scale(131.767 131.767)">
<stop stop-color="#CD9463"/>
<stop offset="1" stop-color="#734324"/>
</radialGradient>
<radialGradient id="paint4_radial_9_16138" cx="0" cy="0" r="1" gradientUnits="userSpaceOnUse" gradientTransform="translate(27.0168 88.5738) scale(139.592 139.592)">
<stop stop-color="#CD9463"/>
<stop offset="1" stop-color="#734324"/>
</radialGradient>
<linearGradient id="paint5_linear_9_16138" x1="97.8465" y1="107.264" x2="14.9751" y2="24.393" gradientUnits="userSpaceOnUse">
<stop stop-color="#85451A"/>
<stop offset="1" stop-color="#D49765"/>
</linearGradient>
</defs>
</svg>
