<svg width="141" height="136" viewBox="0 0 141 136" fill="none" xmlns="http://www.w3.org/2000/svg">
<path d="M69.9642 0.0810623C68.7479 0.324333 67.2883 0.567589 65.8693 0.81086C39.1915 2.59478 16.6492 3.16241 4.28333 9.0818C2.78321 16.7851 0.756022 40.3816 0.350585 52.9907C0.350585 52.9907 0.350585 52.9907 0.350585 53.0312C0.350585 53.4772 0.391128 53.9232 0.431672 54.3286C2.37777 84.0067 5.4591 117.78 7.72955 123.942C14.8247 128.889 28.6096 131.929 37.7319 133.551C38.0968 133.632 38.4617 133.673 38.8266 133.754C38.8672 133.754 38.9077 133.754 38.9483 133.754C47.4219 134.484 82.8977 136.024 96.6826 134.605C97.6151 134.646 98.4665 134.727 99.2368 134.767C99.845 134.686 100.494 134.646 101.183 134.565C107.467 133.592 114.927 131.078 119.874 128.848C120.968 128.443 122.022 128.037 123.036 127.591C127.901 125.564 131.388 123.658 133.942 122.077C135.361 121.226 136.497 120.456 137.267 119.928C137.186 112.428 139.213 79.1009 140.794 59.1128C139.821 33.9351 137.51 13.2578 133.375 5.55449L123.158 2.47315C101.872 -0.608181 80.5867 0.162162 69.9642 -7.65949e-06L69.9642 0.0810623Z" fill="#924000"/>
<path fill-rule="evenodd" clip-rule="evenodd" d="M92.5876 128.443L103.088 134.119C106.575 133.511 114.846 130.754 119.914 128.929C129.28 125.402 134.469 121.956 137.307 120.009C137.226 112.509 139.253 79.1819 140.835 59.1938C139.862 34.0161 137.551 13.3388 133.415 5.63552L123.198 2.55418L92.5876 1.98657L92.5876 128.443Z" fill="url(#paint0_linear_9_16160)"/>
<path style="mix-blend-mode:screen" fill-rule="evenodd" clip-rule="evenodd" d="M132.564 13.9874C132.442 16.2579 134.51 18.1229 134.875 20.3933C135.24 22.5827 139.335 56.2746 139.294 56.6395C137.145 68.2755 135.28 86.3175 134.632 91.872C134.388 93.8992 133.659 110.441 133.902 118.144C125.671 121.023 125.306 123.375 119.874 128.929C128.145 125.848 134.753 121.834 137.267 120.009C137.186 112.509 139.213 79.1818 140.794 59.1937C139.821 34.016 137.51 13.3387 133.375 5.63539L128.834 4.2569C131.834 7.74367 132.604 12.7711 132.523 13.9469L132.564 13.9874Z" fill="url(#paint1_radial_9_16160)"/>
<path fill-rule="evenodd" clip-rule="evenodd" d="M101.223 134.646C107.508 133.673 114.968 131.159 119.914 128.929L128.509 84.9797C128.509 59.1533 126.482 23.6775 123.239 2.55422C101.953 -0.527107 80.6678 0.243236 70.0453 0.0810513C63.9637 9.64938 61.6122 14.7579 56.828 25.1371C40.6916 59.7209 40.4078 95.7643 38.8672 133.754C38.9077 133.754 38.9482 133.754 38.9888 133.754C47.4624 134.484 82.9382 136.024 96.7231 134.605L101.223 134.605L101.223 134.646Z" fill="url(#paint2_radial_9_16160)"/>
<path fill-rule="evenodd" clip-rule="evenodd" d="M41.7052 61.0993C28.1636 61.9508 13.4056 58.7073 0.431624 54.3691C2.37773 84.0066 5.45905 117.78 7.7295 123.942C14.8247 128.889 28.6095 131.929 37.7319 133.551C38.0562 125.24 38.2995 117.658 38.5022 111.982C39.1104 93.9803 39.4347 84.858 41.7052 61.0588L41.7052 61.0993Z" fill="url(#paint3_radial_9_16160)"/>
<path fill-rule="evenodd" clip-rule="evenodd" d="M0.350586 52.9905C10.1216 56.1934 21.2306 58.1395 31.8936 58.5044C39.7997 58.7477 42.6783 57.0854 43.4486 53.4364C45.6785 42.7734 50.0978 33.2051 54.3954 23.9206C58.7742 14.5144 62.4636 7.70306 65.8693 0.770081C39.1915 2.55401 16.6492 3.12162 4.28333 9.04101C2.78321 16.7849 0.756023 40.3813 0.350586 52.9905Z" fill="url(#paint4_radial_9_16160)"/>
<path fill-rule="evenodd" clip-rule="evenodd" d="M38.8672 133.754C40.4078 95.7644 40.6916 59.721 56.747 25.0966C61.5717 14.7174 63.8827 9.60885 69.9642 0.0405197C68.7479 0.283791 67.2883 0.527046 65.8693 0.770317C61.8555 8.47363 58.7741 14.5146 54.3954 23.9208C50.0978 33.2053 45.6785 42.8142 43.4486 53.4367C42.6783 57.0856 39.7997 58.7479 31.8936 58.5046C21.2306 58.1398 10.1216 56.1936 0.350585 52.9907C0.350585 52.9907 0.350585 52.9907 0.350585 53.0312C0.350585 53.4772 0.391128 53.9232 0.431672 54.3286C13.4057 58.6668 28.2042 61.9103 41.7052 61.0589C39.4348 84.8581 39.1104 93.9399 38.5023 111.982C38.2995 117.658 38.0968 125.24 37.7319 133.551C38.0968 133.632 38.4617 133.673 38.8266 133.754L38.8672 133.754ZM112.697 105.454C107.305 114.333 101.994 123.74 96.7231 134.646C97.6556 134.686 98.507 134.767 99.2774 134.808C99.8855 134.727 100.534 134.686 101.223 134.605C105.44 119.807 118.576 100.427 128.469 84.9392C123.685 88.0205 115.738 100.386 112.697 105.414L112.697 105.454Z" fill="url(#paint5_linear_9_16160)"/>
<g style="mix-blend-mode:screen">
<path d="M69.9642 0.0810623C68.7479 0.324333 67.2883 0.567589 65.8693 0.81086C39.1915 2.59478 16.6492 3.16241 4.28333 9.0818C2.78321 16.7851 0.756022 40.3816 0.350585 52.9907C0.350585 52.9907 0.350585 52.9907 0.350585 53.0312C0.350585 53.4772 0.391128 53.9232 0.431672 54.3286C2.37777 84.0067 5.4591 117.78 7.72955 123.942C14.8247 128.889 28.6096 131.929 37.7319 133.551C38.0968 133.632 38.4617 133.673 38.8266 133.754C38.8672 133.754 38.9077 133.754 38.9483 133.754C47.4219 134.484 82.8977 136.024 96.6826 134.605C97.6151 134.646 98.4665 134.727 99.2368 134.767C99.845 134.686 100.494 134.646 101.183 134.565C107.467 133.592 114.927 131.078 119.874 128.848C120.968 128.443 122.022 128.037 123.036 127.591C127.901 125.564 131.388 123.658 133.942 122.077C135.361 121.226 136.497 120.456 137.267 119.928C137.186 112.428 139.213 79.1009 140.794 59.1128C139.821 33.9351 137.51 13.2578 133.375 5.55449L123.158 2.47315C101.872 -0.608181 80.5867 0.162162 69.9642 -7.65949e-06L69.9642 0.0810623Z" fill="#FF0000"/>
</g>
<defs>
<linearGradient id="paint0_linear_9_16160" x1="140.835" y1="68.0729" x2="92.5876" y2="68.0729" gradientUnits="userSpaceOnUse">
<stop offset="0.43" stop-color="#884329"/>
<stop offset="1" stop-color="#57280C"/>
</linearGradient>
<radialGradient id="paint1_radial_9_16160" cx="0" cy="0" r="1" gradientUnits="userSpaceOnUse" gradientTransform="translate(63.7205 94.5884) rotate(-90) scale(143.768 143.768)">
<stop stop-color="#160E0C"/>
<stop offset="0.15" stop-color="#19100C"/>
<stop offset="0.31" stop-color="#25160D"/>
<stop offset="0.46" stop-color="#39220F"/>
<stop offset="0.61" stop-color="#553112"/>
<stop offset="0.77" stop-color="#7A4516"/>
<stop offset="0.92" stop-color="#A55E1A"/>
<stop offset="1" stop-color="#C06D1D"/>
</radialGradient>
<radialGradient id="paint2_radial_9_16160" cx="0" cy="0" r="1" gradientUnits="userSpaceOnUse" gradientTransform="translate(8.58096 122.442) rotate(-90) scale(168.297)">
<stop stop-color="#CD9463"/>
<stop offset="1" stop-color="#734324"/>
</radialGradient>
<radialGradient id="paint3_radial_9_16160" cx="0" cy="0" r="1" gradientUnits="userSpaceOnUse" gradientTransform="translate(78.6 68.2756) rotate(-90) scale(131.767 131.767)">
<stop stop-color="#CD9463"/>
<stop offset="1" stop-color="#734324"/>
</radialGradient>
<radialGradient id="paint4_radial_9_16160" cx="0" cy="0" r="1" gradientUnits="userSpaceOnUse" gradientTransform="translate(88.5738 108.171) rotate(-90) scale(139.592 139.592)">
<stop stop-color="#CD9463"/>
<stop offset="1" stop-color="#734324"/>
</radialGradient>
<linearGradient id="paint5_linear_9_16160" x1="107.264" y1="37.3408" x2="24.393" y2="120.212" gradientUnits="userSpaceOnUse">
<stop stop-color="#85451A"/>
<stop offset="1" stop-color="#D49765"/>
</linearGradient>
</defs>
</svg>
