<svg width="134" height="138" viewBox="0 0 134 138" fill="none" xmlns="http://www.w3.org/2000/svg">
<path fill-rule="evenodd" clip-rule="evenodd" d="M124.926 3.23709C124.365 2.83663 122.363 1.87551 120.921 1.47504C111.07 1.87551 101.339 1.87551 91.6473 1.47504H88.8441C85.7605 4.27831 82.5968 7.08157 79.3931 9.80475C82.5968 7.04153 85.7605 4.27831 88.8441 1.47504C69.6217 -0.166874 46.1143 0.113453 24.3689 1.51509C18.442 2.39611 12.4751 3.63756 6.54815 5.11929C5.82731 5.31952 4.94628 6.00031 4.78609 6.24059C4.02521 7.24176 2.62357 9.92489 2.34325 11.0462C4.58586 41.8821 2.42334 74.7204 0.701332 84.9323C1.42217 84.2115 2.22311 83.3705 3.06409 82.5295C2.22311 83.4105 1.42217 84.2115 0.701332 84.9323C0.621239 85.8534 0.541145 86.5342 0.501099 87.0147C0.621239 87.5754 0.701332 88.1761 0.821472 88.7768C1.34208 91.6601 1.98283 95.1042 2.66362 98.388C3.5046 104.275 7.26899 119.052 9.19123 121.415C9.67179 122.096 10.5128 123.097 11.594 124.298C12.3149 125.099 13.1959 126.02 14.117 126.941C14.3573 127.182 14.5575 127.422 14.8378 127.662C16.72 129.544 18.7223 131.547 20.6446 133.349C20.8849 133.549 21.0851 133.749 21.2853 133.949C22.2464 134.83 23.1275 135.671 23.9284 136.432C28.6539 136.833 44.1119 136.713 73.6664 137.033C89.4047 137.193 106.825 137.674 114.914 136.873C116.636 135.671 124.926 130.706 128.17 127.822L128.891 125.5L131.374 117.49C131.694 116.609 131.694 74.6804 132.255 40.08C132.295 36.5559 132.375 33.1119 132.455 29.788C132.575 22.9801 132.775 16.6928 132.976 11.3666C131.654 9.52442 126.007 3.99798 124.886 3.27714L124.926 3.23709ZM50.4393 31.9906C52.0011 30.9494 53.563 29.8681 55.1248 28.7468C53.603 29.8281 52.0412 30.9494 50.5194 32.0307C50.5194 32.0307 50.5194 32.0307 50.4794 32.0307L50.4393 31.9906ZM69.5816 17.9342C71.7842 16.1722 73.9868 14.33 76.1493 12.5279C73.9868 14.33 71.8242 16.1722 69.5816 17.9342ZM59.4899 25.6632C61.5322 24.1415 63.5346 22.5796 65.577 21.0178C63.5746 22.5796 61.5322 24.1415 59.4899 25.6632ZM44.8328 37.2768C44.8328 37.2768 44.6726 37.477 44.5524 37.5971C44.6726 37.477 44.7527 37.3969 44.8328 37.2768ZM42.5902 39.8398C42.5902 39.8398 42.43 39.9999 42.3499 40.08C42.43 39.9999 42.5101 39.9198 42.5902 39.8398ZM40.2675 42.4027C40.2675 42.4027 39.907 42.8032 39.7468 43.0034C39.907 42.8032 40.1073 42.603 40.2675 42.4027ZM37.6644 45.2861C37.3841 45.5664 37.1438 45.8868 36.8635 46.1671C37.1438 45.8468 37.3841 45.5664 37.6644 45.2861ZM31.8577 51.7336C31.3771 52.2943 30.8565 52.8149 30.3759 53.3755C30.8965 52.8149 31.3771 52.2943 31.8577 51.7336ZM28.7741 55.0975C28.1333 55.8184 27.4926 56.4992 26.8118 57.22C27.4525 56.4992 28.0933 55.8184 28.7741 55.0975ZM18.5221 66.1905C17.7612 66.9914 17.0404 67.7923 16.2795 68.5933C17.0003 67.7923 17.7612 66.9914 18.5221 66.1905ZM15.1582 69.7947C14.3973 70.5956 13.6364 71.3965 12.9156 72.1975C13.6765 71.3965 14.3973 70.5956 15.1582 69.7947ZM8.67062 76.6827C7.98983 77.4035 7.30903 78.1244 6.66829 78.8052C7.30903 78.1244 7.98983 77.4436 8.67062 76.6827Z" fill="#924000"/>
<path fill-rule="evenodd" clip-rule="evenodd" d="M4.30568 91.8203L2.70381 98.388C3.54479 104.275 7.30918 119.052 9.23142 121.415C11.1136 124.178 19.203 132.107 23.9686 136.472C28.6941 136.873 44.1521 136.753 73.7066 137.073C89.4449 137.233 106.865 137.714 114.955 136.913C116.677 135.711 124.966 130.746 128.21 127.862L131.414 117.53L128.611 91.8604H4.30568V91.8203Z" fill="url(#paint0_linear_9_17171)"/>
<path fill-rule="evenodd" clip-rule="evenodd" d="M47.8764 33.7527C62.173 24.3817 76.0692 13.0886 88.8041 1.51508C69.6217 -0.166879 46.1143 0.113447 24.369 1.51508C18.442 2.39611 12.4751 3.63755 6.54819 5.11928C5.82734 5.31951 4.94632 6.00031 4.78613 6.24059C4.02524 7.24176 2.62361 9.92488 2.34328 11.0462C4.5859 41.8821 2.42338 74.7204 0.70137 84.9323C12.5952 72.8783 40.708 42.1224 47.8764 33.7126V33.7527Z" fill="url(#paint1_radial_9_17171)"/>
<path fill-rule="evenodd" clip-rule="evenodd" d="M91.6471 1.51501C78.1514 13.7292 64.4554 25.9835 49.3578 35.8751C40.7478 41.5216 12.2345 77.1231 0.821243 88.8168C1.34185 91.7001 1.9826 95.1441 2.66339 98.428C3.7847 103.994 5.06619 109.16 6.14745 110.762C8.14979 113.686 16.6797 122.015 21.6856 126.581C26.2909 128.103 60.4107 130.585 73.5861 131.386C84.5188 122.015 95.4916 111.924 108.146 104.956C109.948 100.47 111.791 96.1053 113.593 91.8203C117.637 82.0889 121.482 72.758 124.445 63.0667C127.649 52.6947 130.332 41.6017 132.495 29.788C132.615 22.98 132.815 16.6927 133.015 11.3665C131.694 9.52435 126.047 3.99791 124.926 3.27707C124.365 2.8766 122.363 1.91548 120.921 1.51501C111.07 1.91548 101.338 1.91548 91.6471 1.51501Z" fill="url(#paint2_radial_9_17171)"/>
<path fill-rule="evenodd" clip-rule="evenodd" d="M125.887 63.6675C122.964 73.1586 119.76 82.3293 116.156 91.8203C114.474 96.2255 112.752 100.671 110.909 105.236C111.63 107.078 123.204 113.005 131.373 117.61C131.373 117.61 131.453 117.53 131.493 117.53C131.814 116.649 131.814 74.7204 132.374 40.1201C130.372 48.3697 128.25 56.1388 125.927 63.7076L125.887 63.6675Z" fill="url(#paint3_radial_9_17171)"/>
<path fill-rule="evenodd" clip-rule="evenodd" d="M130.012 118.692C120.961 113.606 112.832 109.961 109.027 109.481C97.1735 110.883 86.0806 122.176 77.3904 131.507C83.9581 131.266 111.51 128.463 117.477 127.021C119.079 125.9 126.007 121.735 130.012 118.692Z" fill="url(#paint4_radial_9_17171)"/>
<path fill-rule="evenodd" clip-rule="evenodd" d="M113.593 91.8204C111.791 96.1054 109.989 100.47 108.146 104.956C95.4917 111.924 84.5189 122.016 73.5862 131.387C74.6274 131.467 75.5084 131.507 76.2693 131.547C76.5096 131.547 76.87 131.547 77.3906 131.547C86.0808 122.176 97.1737 110.923 109.028 109.521C112.832 110.002 120.961 113.646 130.012 118.732C130.493 118.331 130.973 117.971 131.374 117.65C123.204 113.045 111.631 107.118 110.91 105.276C112.752 100.711 114.514 96.2655 116.156 91.8604C119.76 82.3694 122.964 73.1987 125.887 63.7076C128.21 56.1388 130.332 48.3697 132.335 40.1201C132.375 36.596 132.455 33.152 132.535 29.8281C130.372 41.6819 127.689 52.7348 124.486 63.1069C121.522 72.7982 117.678 82.1291 113.633 91.8604L113.593 91.8204ZM50.4793 31.9906C46.7549 29.5878 42.9104 23.741 40.2674 20.4171C35.5819 14.4902 30.8163 8.56333 26.0908 2.63642C25.37 1.71535 24.6492 1.47507 24.3688 1.47507C30.1756 9.52445 35.9023 17.5338 41.4287 25.8635C43.431 28.907 45.6737 33.0719 46.4345 35.3946C37.5842 45.6466 11.9143 73.6392 0.70124 84.9724C0.621147 85.8935 0.541054 86.5742 0.501007 87.0548C0.621147 87.6155 0.70124 88.2162 0.82138 88.8169C12.1946 77.1232 40.7479 41.5217 49.358 35.8752C64.4556 25.9436 78.1515 13.7294 91.6472 1.51511H88.844C76.87 12.4078 63.8949 22.9801 50.5193 32.0307L50.4793 31.9906Z" fill="url(#paint5_linear_9_17171)"/>
<path style="mix-blend-mode:screen" fill-rule="evenodd" clip-rule="evenodd" d="M117.958 128.864C116.677 130.225 115.836 132.147 114.114 132.988C104.903 137.393 72.465 136.152 60.8114 135.031C56.6866 134.63 51.8009 133.669 48.5572 132.628C43.7516 133.349 35.9024 134.03 29.535 134.07C26.091 134.07 17.2807 128.703 11.6341 124.338C14.918 127.942 20.4043 133.229 23.9685 136.472C28.694 136.873 44.152 136.753 73.7065 137.073C89.4448 137.233 106.865 137.714 114.955 136.913C116.677 135.712 124.966 130.746 128.21 127.862L128.931 125.54C124.846 129.064 121.002 130.666 117.918 128.864H117.958Z" fill="url(#paint6_radial_9_17171)"/>
<path style="mix-blend-mode:screen" fill-rule="evenodd" clip-rule="evenodd" d="M124.926 3.23709C124.365 2.83663 122.363 1.87551 120.921 1.47504C111.07 1.87551 101.339 1.87551 91.6473 1.47504H88.8441C85.7605 4.27831 82.5968 7.08157 79.3931 9.80475C82.5968 7.04153 85.7605 4.27831 88.8441 1.47504C69.6217 -0.166874 46.1143 0.113453 24.3689 1.51509C18.442 2.39611 12.4751 3.63756 6.54815 5.11929C5.82731 5.31952 4.94628 6.00031 4.78609 6.24059C4.02521 7.24176 2.62357 9.92489 2.34325 11.0462C4.58586 41.8821 2.42334 74.7204 0.701332 84.9323C1.42217 84.2115 2.22311 83.3705 3.06409 82.5295C2.22311 83.4105 1.42217 84.2115 0.701332 84.9323C0.621239 85.8534 0.541145 86.5342 0.501099 87.0147C0.621239 87.5754 0.701332 88.1761 0.821472 88.7768C1.34208 91.6601 1.98283 95.1042 2.66362 98.388C3.5046 104.275 7.26899 119.052 9.19123 121.415C9.67179 122.096 10.5128 123.097 11.594 124.298C12.3149 125.099 13.1959 126.02 14.117 126.941C14.3573 127.182 14.5575 127.422 14.8378 127.662C16.72 129.544 18.7223 131.547 20.6446 133.349C20.8849 133.549 21.0851 133.749 21.2853 133.949C22.2464 134.83 23.1275 135.671 23.9284 136.432C28.6539 136.833 44.1119 136.713 73.6664 137.033C89.4047 137.193 106.825 137.674 114.914 136.873C116.636 135.671 124.926 130.706 128.17 127.822L128.891 125.5L131.374 117.49C131.694 116.609 131.694 74.6804 132.255 40.08C132.295 36.5559 132.375 33.1119 132.455 29.788C132.575 22.9801 132.775 16.6928 132.976 11.3666C131.654 9.52442 126.007 3.99798 124.886 3.27714L124.926 3.23709ZM50.4393 31.9906C52.0011 30.9494 53.563 29.8681 55.1248 28.7468C53.603 29.8281 52.0412 30.9494 50.5194 32.0307C50.5194 32.0307 50.5194 32.0307 50.4794 32.0307L50.4393 31.9906ZM69.5816 17.9342C71.7842 16.1722 73.9868 14.33 76.1493 12.5279C73.9868 14.33 71.8242 16.1722 69.5816 17.9342ZM59.4899 25.6632C61.5322 24.1415 63.5346 22.5796 65.577 21.0178C63.5746 22.5796 61.5322 24.1415 59.4899 25.6632ZM44.8328 37.2768C44.8328 37.2768 44.6726 37.477 44.5524 37.5971C44.6726 37.477 44.7527 37.3969 44.8328 37.2768ZM42.5902 39.8398C42.5902 39.8398 42.43 39.9999 42.3499 40.08C42.43 39.9999 42.5101 39.9198 42.5902 39.8398ZM40.2675 42.4027C40.2675 42.4027 39.907 42.8032 39.7468 43.0034C39.907 42.8032 40.1073 42.603 40.2675 42.4027ZM37.6644 45.2861C37.3841 45.5664 37.1438 45.8868 36.8635 46.1671C37.1438 45.8468 37.3841 45.5664 37.6644 45.2861ZM31.8577 51.7336C31.3771 52.2943 30.8565 52.8149 30.3759 53.3755C30.8965 52.8149 31.3771 52.2943 31.8577 51.7336ZM28.7741 55.0975C28.1333 55.8184 27.4926 56.4992 26.8118 57.22C27.4525 56.4992 28.0933 55.8184 28.7741 55.0975ZM18.5221 66.1905C17.7612 66.9914 17.0404 67.7923 16.2795 68.5933C17.0003 67.7923 17.7612 66.9914 18.5221 66.1905ZM15.1582 69.7947C14.3973 70.5956 13.6364 71.3965 12.9156 72.1975C13.6765 71.3965 14.3973 70.5956 15.1582 69.7947ZM8.67062 76.6827C7.98983 77.4035 7.30903 78.1244 6.66829 78.8052C7.30903 78.1244 7.98983 77.4436 8.67062 76.6827Z" fill="#FF0000"/>
<defs>
<linearGradient id="paint0_linear_9_17171" x1="67.0588" y1="137.313" x2="67.0588" y2="91.8203" gradientUnits="userSpaceOnUse">
<stop offset="0.43" stop-color="#884329"/>
<stop offset="1" stop-color="#57280C"/>
</linearGradient>
<radialGradient id="paint1_radial_9_17171" cx="0" cy="0" r="1" gradientUnits="userSpaceOnUse" gradientTransform="translate(-2.82274 -17.8275) scale(139.122 139.122)">
<stop stop-color="#C28958"/>
<stop offset="1" stop-color="#734324"/>
</radialGradient>
<radialGradient id="paint2_radial_9_17171" cx="0" cy="0" r="1" gradientUnits="userSpaceOnUse" gradientTransform="translate(44.3119 -50.5457) scale(200.914 200.914)">
<stop stop-color="#B6753E"/>
<stop offset="1" stop-color="#64381C"/>
</radialGradient>
<radialGradient id="paint3_radial_9_17171" cx="0" cy="0" r="1" gradientUnits="userSpaceOnUse" gradientTransform="translate(-14.757 64.3083) scale(154.941 154.941)">
<stop stop-color="#C28653"/>
<stop offset="1" stop-color="#734324"/>
</radialGradient>
<radialGradient id="paint4_radial_9_17171" cx="0" cy="0" r="1" gradientUnits="userSpaceOnUse" gradientTransform="translate(201.335 266.544) scale(199.633 199.633)">
<stop stop-color="#C28653"/>
<stop offset="1" stop-color="#734324"/>
</radialGradient>
<linearGradient id="paint5_linear_9_17171" x1="128.17" y1="120.814" x2="16.6398" y2="9.24411" gradientUnits="userSpaceOnUse">
<stop stop-color="#85451A"/>
<stop offset="1" stop-color="#D49765"/>
</linearGradient>
<radialGradient id="paint6_radial_9_17171" cx="0" cy="0" r="1" gradientUnits="userSpaceOnUse" gradientTransform="translate(52.6019 65.5497) scale(130.032 130.032)">
<stop stop-color="#160E0C"/>
<stop offset="0.15" stop-color="#19100C"/>
<stop offset="0.31" stop-color="#25160D"/>
<stop offset="0.46" stop-color="#39220F"/>
<stop offset="0.61" stop-color="#553112"/>
<stop offset="0.77" stop-color="#7A4516"/>
<stop offset="0.92" stop-color="#A55E1A"/>
<stop offset="1" stop-color="#C06D1D"/>
</radialGradient>
</defs>
</svg>
